<svg width="26" height="24" viewBox="0 0 26 24" fill="none" xmlns="http://www.w3.org/2000/svg">
<path d="M14.9983 11H13.9744V7H16.0221C16.2936 7 16.5541 7.10536 16.7461 7.29289C16.9381 7.48043 17.0459 7.73478 17.0459 8C17.0459 8.26522 17.1538 8.51957 17.3458 8.70711C17.5378 8.89464 17.7982 9 18.0698 9C18.3413 9 18.6017 8.89464 18.7937 8.70711C18.9857 8.51957 19.0936 8.26522 19.0936 8C19.0936 7.20435 18.77 6.44129 18.194 5.87868C17.618 5.31607 16.8367 5 16.0221 5H13.9744V3C13.9744 2.73478 13.8666 2.48043 13.6746 2.29289C13.4826 2.10536 13.2221 2 12.9506 2C12.6791 2 12.4187 2.10536 12.2267 2.29289C12.0346 2.48043 11.9268 2.73478 11.9268 3V5H10.9029C9.8168 5 8.77513 5.42143 8.00711 6.17157C7.23909 6.92172 6.80762 7.93913 6.80762 9C6.80762 10.0609 7.23909 11.0783 8.00711 11.8284C8.77513 12.5786 9.8168 13 10.9029 13H11.9268V17H9.87911C9.60758 17 9.34716 16.8946 9.15515 16.7071C8.96315 16.5196 8.85528 16.2652 8.85528 16C8.85528 15.7348 8.74741 15.4804 8.55541 15.2929C8.3634 15.1054 8.10299 15 7.83145 15C7.55991 15 7.2995 15.1054 7.10749 15.2929C6.91549 15.4804 6.80762 15.7348 6.80762 16C6.80762 16.7956 7.13122 17.5587 7.70724 18.1213C8.28325 18.6839 9.0645 19 9.87911 19H11.9268V21C11.9268 21.2652 12.0346 21.5196 12.2267 21.7071C12.4187 21.8946 12.6791 22 12.9506 22C13.2221 22 13.4826 21.8946 13.6746 21.7071C13.8666 21.5196 13.9744 21.2652 13.9744 21V19H14.9983C16.0844 19 17.1261 18.5786 17.8941 17.8284C18.6621 17.0783 19.0936 16.0609 19.0936 15C19.0936 13.9391 18.6621 12.9217 17.8941 12.1716C17.1261 11.4214 16.0844 11 14.9983 11V11ZM11.9268 11H10.9029C10.3599 11 9.83904 10.7893 9.45503 10.4142C9.07102 10.0391 8.85528 9.53043 8.85528 9C8.85528 8.46957 9.07102 7.96086 9.45503 7.58579C9.83904 7.21071 10.3599 7 10.9029 7H11.9268V11ZM14.9983 17H13.9744V13H14.9983C15.5413 13 16.0622 13.2107 16.4462 13.5858C16.8302 13.9609 17.0459 14.4696 17.0459 15C17.0459 15.5304 16.8302 16.0391 16.4462 16.4142C16.0622 16.7893 15.5413 17 14.9983 17Z" fill="white"/>
</svg>
