<svg width="24" height="25" viewBox="0 0 24 25" fill="none" xmlns="http://www.w3.org/2000/svg">
<path d="M14.29 17.3204L13 18.6204V13.0304C13 12.7652 12.8947 12.5108 12.7071 12.3233C12.5196 12.1358 12.2652 12.0304 12 12.0304C11.7348 12.0304 11.4804 12.1358 11.2929 12.3233C11.1054 12.5108 11 12.7652 11 13.0304V18.6204L9.71001 17.3204C9.61677 17.2272 9.50608 17.1532 9.38426 17.1028C9.26244 17.0523 9.13187 17.0263 9.00001 17.0263C8.86815 17.0263 8.73758 17.0523 8.61576 17.1028C8.49394 17.1532 8.38325 17.2272 8.29001 17.3204C8.19677 17.4137 8.12281 17.5243 8.07235 17.6462C8.02189 17.768 7.99592 17.8986 7.99592 18.0304C7.99592 18.1623 8.02189 18.2928 8.07235 18.4147C8.12281 18.5365 8.19677 18.6472 8.29001 18.7404L11.29 21.7404C11.3851 21.8315 11.4973 21.9028 11.62 21.9504C11.7397 22.0033 11.8691 22.0306 12 22.0306C12.1309 22.0306 12.2603 22.0033 12.38 21.9504C12.5028 21.9028 12.6149 21.8315 12.71 21.7404L15.71 18.7404C15.8983 18.5521 16.0041 18.2967 16.0041 18.0304C16.0041 17.7641 15.8983 17.5087 15.71 17.3204C15.5217 17.1321 15.2663 17.0263 15 17.0263C14.7337 17.0263 14.4783 17.1321 14.29 17.3204V17.3204ZM18.42 6.25041C17.809 4.84642 16.7545 3.68149 15.4181 2.93414C14.0817 2.18679 12.5371 1.89824 11.021 2.11272C9.50489 2.3272 8.10094 3.03287 7.02427 4.12159C5.9476 5.21031 5.2576 6.62203 5.06001 8.14041C4.1066 8.36873 3.27023 8.93925 2.70975 9.7436C2.14927 10.548 1.9037 11.5301 2.01968 12.5036C2.13566 13.4771 2.60511 14.3741 3.33888 15.0243C4.07265 15.6744 5.01964 16.0325 6.00001 16.0304C6.26523 16.0304 6.51958 15.9251 6.70712 15.7375C6.89466 15.55 7.00001 15.2956 7.00001 15.0304C7.00001 14.7652 6.89466 14.5108 6.70712 14.3233C6.51958 14.1358 6.26523 14.0304 6.00001 14.0304C5.46958 14.0304 4.96087 13.8197 4.5858 13.4446C4.21073 13.0696 4.00001 12.5608 4.00001 12.0304C4.00001 11.5 4.21073 10.9913 4.5858 10.6162C4.96087 10.2411 5.46958 10.0304 6.00001 10.0304C6.26523 10.0304 6.51958 9.92506 6.70712 9.73752C6.89466 9.54998 7.00001 9.29563 7.00001 9.03041C7.00257 7.84769 7.4243 6.70417 8.19028 5.803C8.95627 4.90183 10.0169 4.30136 11.1838 4.10829C12.3506 3.91521 13.5481 4.14202 14.5636 4.74842C15.579 5.35482 16.3466 6.30155 16.73 7.42041C16.7872 7.59225 16.8899 7.74534 17.0273 7.86335C17.1647 7.98135 17.3315 8.05983 17.51 8.09041C18.1761 8.21628 18.7799 8.56402 19.223 9.07695C19.6662 9.58988 19.9226 10.2378 19.9504 10.9151C19.9782 11.5923 19.7759 12.2591 19.3763 12.8066C18.9767 13.3542 18.4035 13.7503 17.75 13.9304C17.6226 13.9632 17.503 14.0208 17.3978 14.0999C17.2927 14.179 17.2042 14.278 17.1373 14.3913C17.0705 14.5046 17.0266 14.6299 17.0082 14.7602C16.9898 14.8904 16.9972 15.023 17.03 15.1504C17.0628 15.2778 17.1204 15.3975 17.1995 15.5026C17.2786 15.6077 17.3776 15.6962 17.4909 15.7631C17.6042 15.8299 17.7295 15.8738 17.8598 15.8922C17.99 15.9107 18.1226 15.9032 18.25 15.8704C19.3024 15.5923 20.2353 14.9784 20.907 14.1219C21.5787 13.2654 21.9526 12.213 21.9718 11.1247C21.9911 10.0363 21.6546 8.97146 21.0136 8.09173C20.3725 7.21201 19.4619 6.56551 18.42 6.25041V6.25041Z" fill="white"/>
</svg>
