<svg width="24" height="24" viewBox="0 0 24 24" fill="none" xmlns="http://www.w3.org/2000/svg">
<path fill-rule="evenodd" clip-rule="evenodd" d="M5.4454 10.492C5.51942 10.4147 5.80225 10.084 6.06395 9.812C7.60369 8.10133 11.6203 5.30133 13.723 4.44667C14.0429 4.30933 14.8504 4.01867 15.2813 4C15.695 4 16.0875 4.096 16.4642 4.29067C16.9334 4.56267 17.31 4.99067 17.5149 5.496C17.6471 5.84667 17.8533 6.896 17.8533 6.91467C18.0594 8.06267 18.1731 9.928 18.1731 11.9893C18.1731 13.9533 18.0594 15.7427 17.8916 16.908C17.8718 16.9267 17.6669 18.2307 17.4409 18.6773C17.0472 19.4785 16.2416 19.9894 15.3553 20H15.2813C14.7183 19.98 13.5354 19.4733 13.5354 19.4547C11.5462 18.5987 7.6222 15.936 6.04412 14.1667C6.04412 14.1667 5.60004 13.712 5.40707 13.428C5.11006 13.016 4.95207 12.5187 4.95638 12.0093C4.95638 11.4453 5.12556 10.92 5.4454 10.492Z" fill="#ffffff"/>
</svg>
